<svg width="36" height="36" viewBox="0 0 36 36" fill="none" xmlns="http://www.w3.org/2000/svg">
<g clip-path="url(#clip0_5891_54837)">
<circle cx="18" cy="18" r="18" fill="url(#paint0_linear_5891_54837)"/>
<path fill-rule="evenodd" clip-rule="evenodd" d="M13 18C13 15.2266 15.2656 13 18 13C20.7344 13 23 15.2656 23 18C23 20.7344 20.7734 23 18 23C15.2266 23 13 20.7734 13 18ZM14.7969 18C14.7969 19.7578 16.2422 21.2031 18 21.2031C19.7578 21.2031 21.2031 19.7578 21.2031 18C21.2031 16.2422 19.7578 14.7969 18 14.7969C16.2422 14.7969 14.7969 16.2422 14.7969 18Z" fill="white"/>
<circle cx="23" cy="13" r="1" fill="white"/>
<path fill-rule="evenodd" clip-rule="evenodd" d="M22.1532 8C23.8468 8 25.3387 8.56452 26.3871 9.65323C27.4355 10.7016 28 12.1532 28 13.8468V22.1532C28 23.8871 27.4355 25.379 26.3468 26.4274C25.2984 27.4355 23.8468 28 22.1129 28H13.8871C12.2339 28 10.7823 27.4758 9.69355 26.4274C8.56452 25.3387 8 23.8468 8 22.1129V13.8468C8 10.3387 10.3387 8 13.8468 8H22.1532ZM25.0571 25.0974C25.7829 24.4119 26.1458 23.4039 26.1458 22.1539H26.2264V13.8474C26.2264 12.678 25.8232 11.67 25.1377 10.9442C24.4119 10.2184 23.4039 9.85547 22.1942 9.85547H13.8877C12.678 9.85547 11.6297 10.2184 10.9442 10.9039C10.2184 11.6297 9.85547 12.6377 9.85547 13.8474V22.1135C9.85547 23.3635 10.2184 24.3716 10.9442 25.0974C11.67 25.7829 12.678 26.1458 13.8877 26.1458H22.1135C23.3232 26.1458 24.3313 25.7829 25.0571 25.0974Z" fill="white"/>
</g>
<defs>
<linearGradient id="paint0_linear_5891_54837" x1="2.8125" y1="38.8125" x2="36" y2="12.9375" gradientUnits="userSpaceOnUse">
<stop offset="0.0364583" stop-color="#FFD600"/>
<stop offset="0.296792" stop-color="#FF7A00"/>
<stop offset="1" stop-color="#D300C5"/>
</linearGradient>
<clipPath id="clip0_5891_54837">
<rect width="36" height="36" fill="white"/>
</clipPath>
</defs>
</svg>
