<svg width="36" height="36" viewBox="0 0 36 36" fill="none" xmlns="http://www.w3.org/2000/svg">
<path d="M29.9279 4H6.06526C4.926 4 4 4.90398 4 6.01916V29.9801C4 31.0953 4.926 32.0007 6.06526 32.0007H29.9279C31.0692 32.0007 31.9993 31.0953 31.9993 29.9801V6.01916C31.9993 4.90398 31.0699 4 29.9279 4Z" fill="#2867B2"/>
<path fill-rule="evenodd" clip-rule="evenodd" d="M12.3057 14.4969H8.14838V27.8592H12.3057V14.4969ZM12.6353 10.2625C12.6353 8.9334 11.5565 7.85468 10.2281 7.85468C8.89413 7.85468 7.81885 8.93271 7.81885 10.2625C7.81885 11.5924 8.89963 12.6711 10.2281 12.6711C11.5565 12.6711 12.6353 11.5917 12.6353 10.2625ZM18.8916 14.4969H14.911V27.8592H19.0587V21.2506C19.0587 19.5073 19.4179 17.8184 21.5492 17.8184C23.6805 17.8184 23.7073 19.8121 23.7073 21.3614V27.8592H27.8598V20.531C27.8598 16.9323 27.0824 14.1653 22.8776 14.1653C20.8571 14.1653 19.5025 15.2729 18.9487 16.3234H18.8916V14.4969Z" fill="white"/>
</svg>
