<svg width="36" height="36" viewBox="0 0 36 36" fill="none" xmlns="http://www.w3.org/2000/svg">
<g clip-path="url(#clip0_5891_54836)">
<path d="M34.2919 9.71683C33.9001 8.25305 32.7498 7.10273 31.286 6.7109C28.6327 6 18 6 18 6C18 6 7.3673 6 4.71683 6.7109C3.25305 7.10273 2.10273 8.25305 1.7109 9.71683C1 12.3673 1 17.9006 1 17.9006C1 17.9006 1 23.4338 1.7109 26.0843C2.10273 27.5481 3.25305 28.6984 4.71683 29.0902C7.3673 29.8011 18 29.8011 18 29.8011C18 29.8011 28.6327 29.8011 31.2832 29.0902C32.747 28.6984 33.8973 27.5481 34.2891 26.0843C35 23.4338 35 17.9006 35 17.9006C35 17.9006 35 12.3673 34.2891 9.71683H34.2919Z" fill="#FF0000"/>
<path d="M14.5994 23L23.4353 17.9006L14.5994 12.8011V23Z" fill="white"/>
</g>
<defs>
<clipPath id="clip0_5891_54836">
<rect width="34" height="23.8011" fill="white" transform="translate(1 6)"/>
</clipPath>
</defs>
</svg>
