<svg width="20" height="20" viewBox="0 0 20 20" fill="none" xmlns="http://www.w3.org/2000/svg">
<path d="M18.5716 10.0011C18.5716 12.2744 17.6685 14.4546 16.0611 16.062C14.4536 17.6695 12.2734 18.5725 10.0001 18.5725C7.72686 18.5725 5.54668 17.6695 3.93922 16.062C2.33177 14.4546 1.42871 12.2744 1.42871 10.0011C1.42871 7.72783 2.33177 5.54766 3.93922 3.9402C5.54668 2.33275 7.72686 1.42969 10.0001 1.42969C12.2734 1.42969 14.4536 2.33275 16.0611 3.9402C17.6685 5.54766 18.5716 7.72783 18.5716 10.0011Z" stroke="white" stroke-width="1.2" stroke-linecap="round" stroke-linejoin="round"/>
<path d="M7.14258 11.4297L9.99972 14.763L12.8569 11.4297" stroke="white" stroke-width="1.2" stroke-linecap="round" stroke-linejoin="round"/>
<path d="M10 14.7621L10 5.23828" stroke="white" stroke-width="1.2" stroke-linecap="round"/>
</svg>
