<svg width="30" height="30" viewBox="0 0 30 30" fill="none" xmlns="http://www.w3.org/2000/svg">
<path fill-rule="evenodd" clip-rule="evenodd" d="M11.5111 15.9132C11.6553 15.7833 11.8775 15.7949 12.0074 15.939L15.02 19.2826L17.7837 15.9499C17.9076 15.8006 18.1291 15.7799 18.2785 15.9038C18.4279 16.0277 18.4486 16.2492 18.3247 16.3986L15.042 20.357L11.4853 16.4095C11.3554 16.2653 11.3669 16.0431 11.5111 15.9132Z" fill="black"/>
<path fill-rule="evenodd" clip-rule="evenodd" d="M15.0261 9.64282C15.2202 9.64282 15.3775 9.80015 15.3775 9.99422L15.3775 19.8335C15.3775 20.0275 15.2202 20.1849 15.0261 20.1849C14.8321 20.1849 14.6747 20.0275 14.6747 19.8335L14.6747 9.99422C14.6747 9.80015 14.8321 9.64282 15.0261 9.64282Z" fill="black"/>
<path fill-rule="evenodd" clip-rule="evenodd" d="M15 23.8393C19.8818 23.8393 23.8393 19.8818 23.8393 15C23.8393 10.1182 19.8818 6.16075 15 6.16075C10.1182 6.16075 6.16069 10.1182 6.16069 15C6.16069 19.8818 10.1182 23.8393 15 23.8393ZM15 24.6429C20.3256 24.6429 24.6428 20.3256 24.6428 15C24.6428 9.67443 20.3256 5.35718 15 5.35718C9.67437 5.35718 5.35712 9.67443 5.35712 15C5.35712 20.3256 9.67437 24.6429 15 24.6429Z" fill="black"/>
</svg>
