<svg width="26" height="27" viewBox="0 0 26 27" fill="none" xmlns="http://www.w3.org/2000/svg">
<circle cx="13" cy="13.1777" r="12.5" stroke="#808080"/>
<path fill-rule="evenodd" clip-rule="evenodd" d="M11.8009 11.6478H13.5341V12.4803C13.7837 12.0015 14.424 11.5713 15.3858 11.5713C17.2296 11.5713 17.6673 12.5244 17.6673 14.2731V17.5117H15.8007V14.6713C15.8007 13.6755 15.551 13.1139 14.9154 13.1139C14.0339 13.1139 13.6675 13.7191 13.6675 14.6709V17.5117H11.8009V11.6478ZM8.59998 17.4352H10.4667V11.5713H8.59998V17.4352ZM10.7341 9.65922C10.7341 9.81009 10.7031 9.95947 10.6428 10.0987C10.5824 10.2379 10.494 10.3641 10.3827 10.4701C10.157 10.6864 9.8515 10.8075 9.53332 10.8067C9.2157 10.8065 8.91093 10.6858 8.68492 10.4706C8.57395 10.3642 8.48583 10.2378 8.42561 10.0986C8.36539 9.95939 8.33425 9.81007 8.33398 9.65922C8.33398 9.35457 8.45998 9.06297 8.68538 8.84787C8.9112 8.63239 9.2161 8.51158 9.53378 8.51172C9.85205 8.51172 10.1573 8.63277 10.3827 8.84787C10.6076 9.06297 10.7341 9.35457 10.7341 9.65922Z" fill="#808080"/>
</svg>
