<svg width="36" height="36" viewBox="0 0 36 36" fill="none" xmlns="http://www.w3.org/2000/svg">
<path fill-rule="evenodd" clip-rule="evenodd" d="M22.613 11.0583C22.8774 10.7394 23.3503 10.6953 23.6691 10.9597L32.1176 17.966L23.6924 25.5572C23.3846 25.8345 22.9104 25.8098 22.6331 25.502C22.3559 25.1943 22.3806 24.7201 22.6883 24.4428L29.8245 18.0131L22.7116 12.1143C22.3927 11.8499 22.3486 11.3771 22.613 11.0583Z" fill="black"/>
<path fill-rule="evenodd" clip-rule="evenodd" d="M4.25 18C4.25 17.5858 4.58579 17.25 5 17.25H31C31.4142 17.25 31.75 17.5858 31.75 18C31.75 18.4142 31.4142 18.75 31 18.75H5C4.58579 18.75 4.25 18.4142 4.25 18Z" fill="black"/>
</svg>
