<svg width="74" height="74" viewBox="0 0 74 74" fill="none" xmlns="http://www.w3.org/2000/svg">
<circle cx="37" cy="37" r="36.5" stroke="white"/>
<path fill-rule="evenodd" clip-rule="evenodd" d="M41.161 29.9743C41.4254 29.6554 41.8982 29.6113 42.2171 29.8757L50.6655 36.8821L42.2403 44.4732C41.9326 44.7505 41.4584 44.7258 41.1811 44.418C40.9038 44.1103 40.9285 43.6361 41.2363 43.3588L48.3724 36.9291L41.2595 31.0303C40.9407 30.7659 40.8966 30.2931 41.161 29.9743Z" fill="white"/>
<path fill-rule="evenodd" clip-rule="evenodd" d="M22.7979 36.916C22.7979 36.5018 23.1336 36.166 23.5479 36.166H49.5479C49.9621 36.166 50.2979 36.5018 50.2979 36.916C50.2979 37.3302 49.9621 37.666 49.5479 37.666H23.5479C23.1336 37.666 22.7979 37.3302 22.7979 36.916Z" fill="white"/>
</svg>
