<svg width="76" height="76" viewBox="0 0 76 76" fill="none" xmlns="http://www.w3.org/2000/svg">
<path d="M1.50008 37.9294C1.53875 17.7741 18.0149 1.46105 38.3072 1.49999C58.5996 1.53892 75.013 17.915 74.9743 38.0704C74.9356 58.2257 58.4595 74.5388 38.1672 74.4999C17.8748 74.4609 1.46142 58.0848 1.50008 37.9294Z" stroke="black"/>
<path fill-rule="evenodd" clip-rule="evenodd" d="M34.0626 45.0634C33.7976 45.3838 33.3247 45.4273 33.0063 45.1606L24.5714 38.0931L33.0112 30.4695C33.3195 30.1911 33.7937 30.2168 34.0704 30.5271C34.347 30.8373 34.3214 31.3145 34.0132 31.593L26.8646 38.0502L33.9661 44.0004C34.2844 44.2671 34.3276 44.743 34.0626 45.0634Z" fill="black"/>
<path fill-rule="evenodd" clip-rule="evenodd" d="M52.439 38.1124C52.4382 38.5293 52.1017 38.8666 51.6875 38.8658L25.6876 38.8159C25.2734 38.8151 24.9382 38.4765 24.939 38.0597C24.9398 37.6428 25.2763 37.3055 25.6905 37.3063L51.6904 37.3562C52.1046 37.357 52.4398 37.6956 52.439 38.1124Z" fill="black"/>
</svg>
