<svg width="74" height="74" viewBox="0 0 74 74" fill="none" xmlns="http://www.w3.org/2000/svg">
<circle cx="37" cy="37" r="36.5" stroke="black"/>
<path fill-rule="evenodd" clip-rule="evenodd" d="M41.161 29.9735C41.4254 29.6547 41.8982 29.6106 42.2171 29.875L50.6655 36.8813L42.2403 44.4725C41.9326 44.7497 41.4584 44.725 41.1811 44.4173C40.9038 44.1096 40.9285 43.6353 41.2363 43.3581L48.3724 36.9284L41.2595 31.0296C40.9407 30.7652 40.8966 30.2924 41.161 29.9735Z" fill="black"/>
<path fill-rule="evenodd" clip-rule="evenodd" d="M22.7979 36.9153C22.7979 36.5011 23.1336 36.1653 23.5479 36.1653H49.5479C49.9621 36.1653 50.2979 36.5011 50.2979 36.9153C50.2979 37.3295 49.9621 37.6653 49.5479 37.6653H23.5479C23.1336 37.6653 22.7979 37.3295 22.7979 36.9153Z" fill="black"/>
</svg>
